<svg width="30" height="31" viewBox="0 0 30 31" fill="none" xmlns="http://www.w3.org/2000/svg">
<path d="M21.5389 0.511719H7.99439C3.58621 0.511719 0 4.09606 0 8.50194V22.0396C0 26.4453 3.58621 30.0296 7.99439 30.0296H21.5391C25.9471 30.0296 29.5333 26.4453 29.5333 22.0396V8.50194C29.5333 4.09606 25.9471 0.511719 21.5389 0.511719V0.511719ZM27.8019 22.0396C27.8019 25.4911 24.9924 28.2991 21.5389 28.2991H7.99439C4.54089 28.2991 1.73137 25.4911 1.73137 22.0396V8.50194C1.73137 5.05025 4.54089 2.24218 7.99439 2.24218H21.5391C24.9924 2.24218 27.8019 5.05025 27.8019 8.50194V22.0396Z" fill="white"/>
<path d="M14.7666 7.19958C10.3138 7.19958 6.69128 10.8202 6.69128 15.2707C6.69128 19.7211 10.3138 23.3417 14.7666 23.3417C19.2194 23.3417 22.8418 19.7211 22.8418 15.2707C22.8418 10.8202 19.2194 7.19958 14.7666 7.19958ZM14.7666 21.6113C11.2687 21.6113 8.42265 18.7669 8.42265 15.2707C8.42265 11.7746 11.2687 8.93005 14.7666 8.93005C18.2647 8.93005 21.1105 11.7746 21.1105 15.2707C21.1105 18.7669 18.2647 21.6113 14.7666 21.6113Z" fill="white"/>
<path d="M23.035 4.33319C21.7191 4.33319 20.6488 5.40313 20.6488 6.7181C20.6488 8.03329 21.7191 9.10323 23.035 9.10323C24.3508 9.10323 25.4213 8.03329 25.4213 6.7181C25.4213 5.40291 24.3508 4.33319 23.035 4.33319ZM23.035 7.37254C22.674 7.37254 22.3802 7.07887 22.3802 6.7181C22.3802 6.3571 22.674 6.06366 23.035 6.06366C23.3961 6.06366 23.69 6.3571 23.69 6.7181C23.69 7.07887 23.3961 7.37254 23.035 7.37254Z" fill="white"/>
</svg>
